<svg data-v-fde0c5aa="" xmlns="http://www.w3.org/2000/svg" viewBox="0 0 300 300" class="iconLeft"><!----><defs data-v-fde0c5aa=""><!----></defs><rect data-v-fde0c5aa="" fill="#F6E7DC" x="0" y="0" width="300px" height="300px" class="logo-background-square"></rect><defs data-v-fde0c5aa=""><!----></defs><g data-v-fde0c5aa="" id="34dd2b2b-862a-49fd-bdde-282b9b2f9e38" fill="#2B1200" transform="matrix(2.646325094728274,0,0,2.646325094728274,95.21333750587786,123.17949455923319)"><path d="M7.91 14.18L5.17 5.57C5.07 5.22 4.76 5.12 4.42 5.12C4.07 5.12 3.72 5.18 3.36 5.32L0.45 13.92C0.36 14.17 0.29 14.43 0.29 14.62C0.29 15.01 0.53 15.18 1.02 15.18C1.33 15.18 1.53 15.12 1.72 15.05C1.65 14.97 1.62 14.85 1.62 14.70C1.62 14.55 1.67 14.38 1.71 14.21L2.35 11.98L5.92 11.98L6.72 14.67C6.80 15.01 7.13 15.18 7.52 15.18C7.92 15.18 8.13 15.04 8.27 14.88C8.11 14.70 7.98 14.41 7.91 14.18ZM2.58 11.24L4.12 5.95L5.70 11.24ZM15.78 14C15.68 14.17 15.51 14.20 15.40 14.20C15.13 14.20 15.02 14 15.02 13.48L15.01 8.46C15.01 7.98 14.69 7.70 14.28 7.70C13.92 7.70 13.66 7.88 13.55 7.98C13.76 8.57 13.76 9.06 13.76 11.23C13.76 13.61 12.81 14.55 11.93 14.55C10.93 14.55 10.61 13.85 10.61 12.12L10.61 8.40C10.61 7.95 10.30 7.70 9.88 7.70C9.55 7.70 9.32 7.85 9.16 7.99C9.31 8.44 9.35 9.07 9.35 9.55L9.35 12.29C9.35 14.43 10.05 15.22 11.55 15.22C12.67 15.22 13.51 14.59 13.89 13.48L13.89 13.66C13.89 14.67 14.31 15.16 15.05 15.16C15.61 15.16 15.93 14.88 15.93 14.46C15.93 14.31 15.89 14.15 15.78 14ZM20.12 15.20C21.38 15.20 22.34 14.67 22.65 13.68C22.79 13.20 22.68 13.01 22.50 12.92C22.27 13.86 21.46 14.36 20.47 14.36C19.17 14.36 18.17 13.54 18.17 11.28C18.17 9.28 18.96 8.23 20.09 8.23C20.79 8.23 21.36 8.55 21.36 9.38C21.36 9.83 21.22 10.16 20.92 10.30C21.08 10.51 21.36 10.60 21.63 10.60C22.22 10.60 22.64 10.15 22.64 9.48C22.64 8.47 21.80 7.70 20.22 7.70C18.03 7.70 16.81 9.14 16.81 11.48C16.81 13.90 18.05 15.20 20.12 15.20ZM26.35 7.90L25.90 7.90C25.91 7.20 25.96 6.72 26.07 6.31C25.96 6.22 25.72 6.03 25.35 6.03C24.92 6.03 24.61 6.29 24.61 6.72L24.61 7.90L23.94 7.90C23.74 7.90 23.59 8.01 23.58 8.23L23.56 8.58C23.74 8.55 24.22 8.54 24.40 8.54L24.61 8.54L24.61 13.54C24.61 14.56 25.16 15.18 26.08 15.18C26.82 15.18 27.34 14.87 27.34 14.41C27.34 14.27 27.30 14.10 27.17 13.93C27.09 14.11 26.78 14.20 26.54 14.20C26.10 14.20 25.87 13.93 25.87 13.44L25.89 9.04L25.89 8.54L27.27 8.54C27.45 8.54 27.61 8.41 27.62 8.19L27.64 7.85C27.50 7.87 26.49 7.90 26.35 7.90ZM29.92 6.69C30.37 6.69 30.73 6.33 30.73 5.88C30.73 5.42 30.37 5.05 29.92 5.05C29.46 5.05 29.09 5.42 29.09 5.88C29.09 6.33 29.46 6.69 29.92 6.69ZM30.60 13.34L30.59 8.39C30.59 7.95 30.30 7.70 29.88 7.70C29.51 7.70 29.27 7.88 29.15 7.98C29.32 8.43 29.34 9.00 29.34 9.55L29.36 14.49C29.36 14.92 29.67 15.19 30.07 15.19C30.44 15.19 30.69 15.01 30.80 14.90C30.63 14.45 30.60 13.89 30.60 13.34ZM35.64 15.20C37.70 15.20 38.89 13.82 38.89 11.47C38.89 9.10 37.70 7.70 35.64 7.70C33.59 7.70 32.38 9.10 32.38 11.47C32.38 13.82 33.59 15.20 35.64 15.20ZM35.64 14.67C34.40 14.67 33.74 13.54 33.74 11.47C33.74 9.37 34.40 8.23 35.64 8.23C36.88 8.23 37.53 9.37 37.53 11.47C37.53 13.54 36.88 14.67 35.64 14.67ZM46.52 13.34L46.52 10.60C46.52 8.69 45.81 7.70 44.27 7.70C43.12 7.70 42.28 8.32 41.89 9.39L41.89 9.23C41.89 8.22 41.47 7.71 40.73 7.71C40.17 7.71 39.83 8.01 39.83 8.43C39.83 8.60 39.89 8.74 40.00 8.89C40.08 8.72 40.26 8.69 40.36 8.69C40.63 8.69 40.74 8.89 40.75 9.41L40.75 14.43C40.75 14.91 41.06 15.19 41.50 15.19C41.85 15.19 42.11 15.02 42.22 14.91C42.01 14.34 42.01 13.83 42.01 11.66C42.01 9.32 42.99 8.41 43.89 8.41C44.93 8.41 45.25 9.24 45.26 10.77L45.26 14.49C45.26 14.92 45.58 15.19 46.00 15.19C46.33 15.19 46.56 15.05 46.73 14.90C46.56 14.45 46.54 13.82 46.52 13.34ZM49.38 6.69C49.83 6.69 50.19 6.33 50.19 5.88C50.19 5.42 49.83 5.05 49.38 5.05C48.92 5.05 48.55 5.42 48.55 5.88C48.55 6.33 48.92 6.69 49.38 6.69ZM50.06 13.34L50.05 8.39C50.05 7.95 49.76 7.70 49.34 7.70C48.97 7.70 48.73 7.88 48.61 7.98C48.78 8.43 48.80 9.00 48.80 9.55L48.82 14.49C48.82 14.92 49.13 15.19 49.53 15.19C49.90 15.19 50.15 15.01 50.26 14.90C50.09 14.45 50.06 13.89 50.06 13.34ZM54.28 7.90L53.83 7.90C53.84 7.20 53.89 6.72 54.00 6.31C53.89 6.22 53.65 6.03 53.28 6.03C52.85 6.03 52.54 6.29 52.54 6.72L52.54 7.90L51.87 7.90C51.67 7.90 51.52 8.01 51.51 8.23L51.49 8.58C51.67 8.55 52.15 8.54 52.33 8.54L52.54 8.54L52.54 13.54C52.54 14.56 53.09 15.18 54.01 15.18C54.75 15.18 55.27 14.87 55.27 14.41C55.27 14.27 55.23 14.10 55.10 13.93C55.02 14.11 54.71 14.20 54.47 14.20C54.03 14.20 53.80 13.93 53.80 13.44L53.82 9.04L53.82 8.54L55.20 8.54C55.38 8.54 55.54 8.41 55.55 8.19L55.57 7.85C55.43 7.87 54.42 7.90 54.28 7.90ZM62.01 13.17C61.71 13.93 60.93 14.36 59.92 14.36C58.70 14.36 57.76 13.72 57.64 11.79C58.13 11.84 58.62 11.87 59.12 11.87C61.05 11.87 62.27 11.14 62.27 9.74C62.27 8.40 61.17 7.70 59.65 7.70C57.46 7.70 56.27 9.16 56.27 11.48C56.27 13.90 57.55 15.20 59.60 15.20C60.80 15.20 61.77 14.76 62.12 13.89C62.31 13.43 62.19 13.24 62.01 13.17ZM59.60 8.23C60.24 8.23 60.91 8.51 60.91 9.56C60.91 11.00 59.79 11.33 58.56 11.33C58.24 11.31 57.92 11.30 57.62 11.27C57.64 9.28 58.41 8.23 59.60 8.23Z"></path></g><defs data-v-fde0c5aa=""><linearGradient data-v-fde0c5aa="" gradientTransform="rotate(25)" id="b0d30310-4fd3-4e8e-b053-ebae3b4fb30c" x1="0%" y1="0%" x2="100%" y2="0%"><stop data-v-fde0c5aa="" offset="0%" stop-color="#792300" stop-opacity="1"></stop><stop data-v-fde0c5aa="" offset="100%" stop-color="#F37000" stop-opacity="1"></stop></linearGradient></defs><g data-v-fde0c5aa="" id="e0d74390-24be-4dbb-8fb9-380cbecaed66" stroke="none" fill="url(#b0d30310-4fd3-4e8e-b053-ebae3b4fb30c)" transform="matrix(1.3431491200041574,0,0,1.3431491200041574,40,128.50961424004933)"><path d="M17.572 23.933l4.106 7.095L32 13.189h-8.981V7.582L11.51.972 0 7.582v13.222l11.51 6.611 6.062-3.482zm10.96-8.744l-6.855 11.846-6.855-11.846h13.71z"></path></g><!----></svg>